<?xml version="1.0" standalone="no"?>
<!DOCTYPE svg PUBLIC "-//W3C//DTD SVG 20010904//EN"
 "http://www.w3.org/TR/2001/REC-SVG-20010904/DTD/svg10.dtd">
<svg version="1.0" xmlns="http://www.w3.org/2000/svg"
 width="2556.000000pt" height="1632.000000pt" viewBox="0 0 2556.000000 1632.000000"
 preserveAspectRatio="xMidYMid meet">

<g transform="translate(0.000000,1632.000000) scale(0.100000,-0.100000)"
fill="#000000" stroke="none">
<path d="M12560 13879 c-372 -27 -778 -97 -1155 -200 -319 -88 -619 -201 -920
-348 -631 -309 -1119 -662 -1637 -1184 -580 -584 -1057 -1351 -1325 -2132 -39
-116 -118 -390 -139 -485 -7 -35 -18 -78 -24 -95 -54 -170 -120 -648 -141
-1022 -11 -199 -8 -585 5 -653 2 -14 7 -77 11 -140 17 -309 103 -763 210
-1109 13 -42 36 -116 51 -166 61 -202 162 -448 289 -710 350 -718 798 -1305
1401 -1834 731 -643 1649 -1110 2559 -1301 55 -12 129 -27 165 -35 87 -19 318
-52 460 -66 63 -6 129 -13 145 -15 89 -12 634 -16 775 -5 364 28 665 81 1030
182 506 139 1097 388 1520 641 219 131 871 586 974 680 10 10 22 15 26 13 13
-8 354 322 476 460 427 488 772 1050 1014 1655 23 58 51 127 62 153 74 185
215 702 253 932 9 55 18 102 20 105 9 16 50 378 66 585 13 169 5 697 -12 854
-78 709 -183 1141 -410 1680 -124 293 -202 451 -342 691 -285 491 -633 928
-1044 1312 -212 198 -282 256 -502 421 -895 673 -1938 1062 -3049 1137 -177
12 -643 11 -812 -1z m740 -760 c290 -17 792 -104 1035 -179 383 -119 608 -209
890 -354 842 -434 1516 -1058 2007 -1856 107 -173 206 -358 283 -530 77 -169
116 -268 175 -435 72 -206 152 -491 179 -640 46 -245 83 -590 96 -892 6 -148
-17 -539 -45 -764 -91 -720 -389 -1492 -821 -2130 -235 -346 -569 -728 -799
-911 -177 -142 -584 -415 -800 -539 -213 -121 -793 -399 -834 -399 -3 0 -25
-9 -49 -19 -53 -24 -220 -80 -357 -120 -58 -17 -118 -35 -135 -40 -68 -21
-365 -94 -435 -107 -356 -68 -641 -86 -990 -64 -183 11 -457 43 -565 66 -38 8
-126 26 -195 39 -292 59 -679 186 -950 311 -41 20 -96 45 -122 57 -27 12 -48
26 -48 30 0 4 17 15 38 24 183 76 400 209 524 321 153 138 294 322 381 497 90
179 125 286 168 506 22 109 23 140 27 748 2 386 0 637 -6 643 -23 23 -326
-108 -440 -189 -87 -62 -214 -190 -262 -264 l-38 -59 -1 -318 c-1 -174 -6
-346 -12 -382 -24 -157 -106 -356 -194 -475 -63 -84 -144 -175 -156 -175 -7 0
-9 158 -6 492 4 408 7 505 21 561 40 171 113 339 208 482 67 101 238 274 346
349 103 72 282 158 399 191 169 49 237 53 960 54 549 1 686 4 743 16 331 70
598 348 635 663 6 56 5 62 -12 62 -253 7 -2129 -3 -2192 -10 -362 -45 -754
-206 -1061 -438 -104 -79 -302 -279 -382 -385 -169 -227 -304 -514 -368 -785
-43 -181 -50 -314 -50 -1026 0 -570 -2 -667 -14 -663 -8 3 -61 40 -119 82
-556 403 -1099 1056 -1436 1725 -307 610 -469 1188 -527 1885 -13 155 -7 644
11 831 32 346 96 664 205 1014 142 459 361 908 648 1330 304 446 674 833 1127
1175 116 87 388 275 399 275 2 0 53 30 112 66 124 74 416 221 579 290 61 25
196 75 300 109 433 144 868 231 1260 251 66 4 122 8 125 11 7 6 400 1 540 -8z"/>
</g>
</svg>
