<svg xmlns="http://www.w3.org/2000/svg" viewBox="0 0 200 200" width="100%" height="100%">
  <circle cx="100" cy="100" r="85" fill="none" stroke="#0052CC" stroke-width="12"/>

  <path d="M 80 130 V 85 C 80 65, 100 65, 110 80 C 120 95, 135 85, 145 65" fill="none" stroke="#856E99" stroke-width="12" stroke-linecap="round" stroke-linejoin="round"/>
  <polygon points="132,63 155,50 148,72" fill="#856E99"/>

  <path d="M 80 150 V 115" fill="none" stroke="#0052CC" stroke-width="12" stroke-linecap="round"/>
  <path d="M 80 115 C 95 115, 105 110, 120 110" fill="none" stroke="#0052CC" stroke-width="12" stroke-linecap="round"/>
</svg>
<svg xmlns="http://www.w3.org/2000/svg" viewBox="0 0 200 200" width="100%" height="100%">
  <circle cx="100" cy="100" r="85" fill="none" stroke="#0052CC" stroke-width="12"/>

  <path d="M 80 130 V 85 C 80 65, 100 65, 110 80 C 120 95, 135 85, 145 65" fill="none" stroke="#856E99" stroke-width="12" stroke-linecap="round" stroke-linejoin="round"/>
  <polygon points="132,63 155,50 148,72" fill="#856E99"/>

  <path d="M 80 150 V 115" fill="none" stroke="#0052CC" stroke-width="12" stroke-linecap="round"/>
  <path d="M 80 115 C 95 115, 105 110, 120 110" fill="none" stroke="#0052CC" stroke-width="12" stroke-linecap="round"/>
</svg>
